<svg id="Layer_1" data-name="Layer 1" xmlns="http://www.w3.org/2000/svg" viewBox="0 0 760 329.62"><defs><style>.cls-1{opacity:0.7;}.cls-2,.cls-3{fill:#26a9e1;}.cls-2{opacity:0.5;}.cls-4{fill:#93c352;}</style></defs><title>SI</title><g class="cls-1"><path class="cls-2" d="M274,250.63,155.43,123.8,384.9,2.21,276.59,111,391.16,92.3l.16-.2.59.16,163.14,35.43,46.26-40.24L475.54,25.6l.8-1.64,128.52,63.2L555.4,129.68l-.42-.12L392,94.19ZM158.39,124.3,273.88,247.8,389.57,94.41,271.32,113.73,375.1,9.46Z"/><path class="cls-2" d="M422.35,250.12H273V200.33l-80.19,19.91,82-110.62V198L404.51,165.8l-13.84-73,.42-.35,47.24-38.31L376.55,4.23,478,24.26l-36.8,29.85,116,75-150.59,38ZM274.86,248.3H420.15l-15.3-80.71-130,32.28ZM273,115.14l-75.7,102.1L273,198.45ZM392.67,93.51l13.62,71.85,146.93-37.12-113.44-73ZM383.44,7.45l56.34,45.49L473.86,25.3Z"/><path class="cls-2" d="M406.82,326.53l-.73-.41L273.5,250l-78.73-30.41.66-1.7,78.85,30.47,132,75.76,56-81.54-40.8,7.53-.33-1.79,42.59-7.87,91.81-113.76,15,95.91-1.05.19L464.75,242.11ZM555,130.68,466.21,240l101.84-18.8Z"/><polygon class="cls-2" points="569.06 222.78 155.2 124.58 156.24 123.44 238.61 32.88 239.19 33.11 392 92.29 391.34 93.99 239.12 35.03 158.63 123.52 569.48 221.01 569.06 222.78"/><circle class="cls-3" cx="380" cy="5.84" r="5.84"/><circle class="cls-3" cx="273.98" cy="112.47" r="3.65"/><circle class="cls-4" cx="555.28" cy="129.44" r="8.22"/><circle class="cls-3" cx="475.63" cy="25.1" r="4.38"/><circle class="cls-3" cx="391.67" cy="93.14" r="5.84"/><circle class="cls-3" cx="603.08" cy="87.31" r="5.84"/><circle class="cls-3" cx="569.27" cy="221.89" r="5.84" transform="translate(146.64 663.13) rotate(-67.53)"/><circle class="cls-3" cx="238.8" cy="34.18" r="4.38"/><circle class="cls-3" cx="156.91" cy="124.05" r="3.65"/><circle class="cls-3" cx="195.67" cy="218.87" r="5.84"/><circle class="cls-3" cx="273.98" cy="249.33" r="4.38"/><circle class="cls-3" cx="309.67" cy="201.76" r="4.38"/><circle class="cls-3" cx="406.52" cy="325.24" r="4.38"/><circle class="cls-3" cx="421.32" cy="249.33" r="3.65"/></g><path class="cls-3" d="M0,196.77l8.7-10.34c7.88,6.82,15.87,10.7,26,10.7,8.93,0,14.58-4.23,14.58-10.35v-.23c0-12.37-3.3-9.05-18.58-12.58-17.51-4.23-27.39-9.4-27.39-24.57v-.23c0-14.11,11.76-23.87,28.1-23.87a45.63,45.63,0,0,1,29.86,10.35l-7.76,10.93c-7.41-5.53-14.82-8.46-22.34-8.46-8.46,0-13.4,4.35-13.4,9.75v.24c0,6.35,3.76,9.17,19.63,12.93,17.4,4.23,26.33,10.46,26.33,24.1v.23c0,15.4-12.1,24.57-29.38,24.57A50.69,50.69,0,0,1,0,196.77Z"/><path class="cls-3" d="M76.76,145.13H91v9.41c4-5.53,9.4-10.7,18.92-10.7,8.94,0,15.28,4.35,18.58,10.93,4.93-6.58,11.52-10.93,20.92-10.93,13.52,0,21.75,8.58,21.75,23.75V207.2H156.93V171.94c0-9.88-4.58-15.17-12.58-15.17-7.75,0-13.28,5.41-13.28,15.4v35H116.85V171.82c0-9.64-4.71-15-12.58-15S91,162.65,91,172.17v35H76.76Z"/><path class="cls-3" d="M283.21,145h14.22v14c3.88-9.28,11.05-15.63,22-15.16v15.05h-.83c-12.46,0-21.16,8.11-21.16,24.57V207H283.21Z"/><path class="cls-3" d="M332.35,189.87V157.19h-7.88V145h7.88v-17h14.22v17h16.7v12.22h-16.7v30.45c0,5.52,2.82,7.76,7.64,7.76a19.12,19.12,0,0,0,8.82-2.12v11.64a24.6,24.6,0,0,1-12.81,3.17C339.75,208.09,332.35,203.51,332.35,189.87Z"/><path class="cls-3" d="M387.83,121.92h14.46V207H387.83Z"/><path class="cls-3" d="M420.27,145H434.5v9.52c4-5.76,9.76-10.82,19.4-10.82,14,0,22.09,9.41,22.09,23.75V207H461.77V171.77c0-9.64-4.82-15.17-13.28-15.17-8.23,0-14,5.76-14,15.4v35H420.27Z"/><path class="cls-3" d="M485.75,198.92l6.35-9.64c6.82,5.06,14,7.64,20.34,7.64,6.11,0,9.63-2.58,9.63-6.7V190c0-4.82-6.58-6.47-13.87-8.7-9.17-2.59-19.39-6.35-19.39-18.22v-.24c0-11.75,9.75-18.92,22.1-18.92a43,43,0,0,1,22.8,7.05l-5.64,10.11c-6-3.64-12.34-5.88-17.51-5.88-5.53,0-8.7,2.59-8.7,6.12v.23c0,4.59,6.7,6.47,14,8.82,9.06,2.82,19.28,6.93,19.28,18.1v.24c0,13-10.11,19.51-23,19.51A43.57,43.57,0,0,1,485.75,198.92Z"/><path class="cls-3" d="M548.17,145H562.4V207H548.17Z"/><path class="cls-3" d="M575.44,176.12v-.24c0-20.57,14-32.21,28.8-32.21,10.23,0,16.7,5.06,21.16,10.93V121.22h14.23V207H625.4V196.69c-4.58,6.46-11,11.64-21.16,11.64C589.67,208.33,575.44,196.69,575.44,176.12Zm50.2,0v-.24c0-12-8.47-19.86-18-19.86-9.76,0-17.87,7.52-17.87,19.86v.24c0,12,8.23,19.86,17.87,19.86S625.64,188,625.64,176.12Z"/><path class="cls-3" d="M651.73,176.23V176c0-17.75,12.58-32.33,30.33-32.33,19.75,0,29.74,15.52,29.74,33.39,0,1.29-.12,2.58-.23,4H666c1.52,10.11,8.7,15.76,17.86,15.76,6.94,0,11.88-2.59,16.81-7.41l8.35,7.41c-5.88,7.05-14,11.64-25.39,11.64C665.6,208.45,651.73,195.4,651.73,176.23Zm46-4.58c-1-9.17-6.35-16.34-15.76-16.34-8.7,0-14.81,6.7-16.1,16.34Z"/><path class="cls-3" d="M723.79,145H738v14c3.88-9.28,11-15.63,22-15.16v15.05h-.83c-12.46,0-21.16,8.11-21.16,24.57V207H723.79Z"/><path class="cls-4" d="M255.1,195.25s-5.56-15.42-5.77-19l21.1-29H255.14l-10.72,12.88s-3.6-16-17.82-16.42-33.33,10.95-40.47,26.77c0,0-9.63,20,3.72,30.72s29.26,4.53,35.79,1.41c4.38-2.1,13.1-10.89,15.22-14,0,0,2.57,16.2,13.38,18.05a16.46,16.46,0,0,0,16.19-5.91S258.45,202.85,255.1,195.25Zm-55.72-2.79c-2.87-10.88,2.87-22.79,6.78-28.33s8.23-11.94,17.19-12.68,12.51,22.21,12.51,22.21C220.39,198.16,202.25,203.35,199.38,192.46Z"/></svg>